<?xml version="1.0" standalone="no"?>
<!DOCTYPE svg PUBLIC "-//W3C//DTD SVG 20010904//EN"
 "http://www.w3.org/TR/2001/REC-SVG-20010904/DTD/svg10.dtd">
<svg version="1.0" xmlns="http://www.w3.org/2000/svg"
 width="270.000000pt" height="148.000000pt" viewBox="0 0 270.000000 148.000000"
 preserveAspectRatio="xMidYMid meet">
<metadata>
Created by potrace 1.10, written by Peter Selinger 2001-2011
</metadata>
<g transform="translate(0.000000,148.000000) scale(0.100000,-0.100000)"
fill="#000000" stroke="none">
<path d="M1145 1382 c-10 -7 -35 -48 -35 -57 0 -3 27 -5 61 -5 58 0 60 1 53
23 -3 12 -11 28 -16 35 -11 13 -47 16 -63 4z m48 -26 c16 -12 15 -14 -10 -14
-33 0 -45 6 -38 19 8 13 27 11 48 -5z"/>
<path d="M750 1316 c-6 -6 -10 -34 -10 -63 0 -52 0 -53 31 -53 26 0 30 3 27
23 -3 21 1 22 76 25 71 3 82 0 115 -23 35 -24 43 -25 176 -25 129 0 140 2 162
22 20 19 38 23 118 26 l95 4 0 -156 0 -156 25 0 25 0 0 184 c0 135 -3 186 -12
192 -7 5 -58 9 -113 9 l-100 0 3 -33 c3 -30 0 -34 -40 -52 -35 -16 -65 -20
-168 -19 -154 0 -193 14 -198 69 l-3 35 -100 0 c-55 0 -104 -4 -109 -9z"/>
<path d="M1240 1320 c0 -13 80 -13 100 0 11 7 -2 10 -42 10 -32 0 -58 -4 -58
-10z"/>
<path d="M995 1310 c-14 -6 2 -9 50 -9 48 0 64 3 50 9 -11 5 -33 9 -50 9 -16
0 -39 -4 -50 -9z"/>
<path d="M705 1171 c-38 -16 -58 -50 -63 -104 -3 -43 0 -57 19 -81 43 -54 124
-66 179 -27 64 45 62 162 -3 201 -33 21 -96 25 -132 11z m110 -100 c28 -57 32
-73 20 -77 -18 -7 -35 3 -35 22 0 24 -67 19 -75 -6 -3 -11 -15 -20 -26 -20
-10 0 -19 2 -19 4 0 2 16 37 35 79 23 50 40 75 50 73 8 -1 31 -35 50 -75z
m-34 -96 c0 -5 -9 -11 -21 -13 -20 -3 -27 8 -13 22 10 9 34 3 34 -9z"/>
<path d="M752 1080 c-7 -19 -6 -26 5 -28 22 -5 27 5 16 30 l-11 23 -10 -25z"/>
<path d="M1050 1060 c-53 -47 -56 -48 -83 -33 -27 13 -28 13 -18 -4 6 -10 18
-27 26 -38 13 -17 17 -17 29 -5 91 100 108 121 105 124 -2 2 -29 -17 -59 -44z"/>
<path d="M1130 1040 c0 -6 62 -10 165 -10 103 0 165 4 165 10 0 6 -62 10 -165
10 -103 0 -165 -4 -165 -10z"/>
<path d="M1155 1004 c69 -7 305 -8 305 -1 0 4 -75 6 -167 5 -93 0 -154 -3
-138 -4z"/>
<path d="M1910 969 c9 -15 8 -24 -1 -36 -11 -13 -11 -15 5 -12 42 9 47 69 6
69 -18 0 -19 -3 -10 -21z"/>
<path d="M1130 970 c0 -6 48 -10 125 -10 77 0 125 4 125 10 0 6 -48 10 -125
10 -77 0 -125 -4 -125 -10z"/>
<path d="M1740 964 c-52 -7 -106 -16 -119 -19 -26 -7 -19 -20 14 -28 18 -4 18
-5 -2 -6 -12 0 -25 -5 -28 -11 -8 -13 71 -13 96 0 15 8 19 7 19 -4 0 -15 86
-96 101 -96 5 0 9 -13 9 -28 0 -33 16 -52 45 -52 12 0 26 5 33 12 15 15 16 48
2 48 -5 0 -9 -6 -7 -12 1 -7 -7 -13 -18 -13 -11 0 -19 6 -17 13 1 6 -4 12 -12
12 -8 0 -18 9 -21 20 -3 11 -15 25 -26 30 -25 14 -25 33 1 25 29 -9 25 0 -12
26 -22 16 -28 17 -19 6 11 -14 11 -17 0 -17 -23 1 -52 28 -43 41 5 8 3 10 -6
4 -8 -5 -11 -3 -8 5 2 7 24 15 49 17 l44 3 -32 -15 c-45 -19 -41 -24 10 -14
65 13 66 12 61 -23 -5 -29 -2 -35 22 -45 38 -18 41 -17 85 18 l39 31 20 -24
c10 -12 22 -43 25 -68 4 -25 14 -79 22 -120 14 -69 14 -75 -3 -87 -20 -14
-112 -17 -132 -5 -10 7 -11 19 -2 57 6 26 7 57 3 69 -14 42 -22 -66 -22 -331
-1 -227 -3 -263 -16 -263 -8 0 -15 -4 -15 -10 0 -5 6 -10 14 -10 25 0 46 12
46 25 0 7 4 15 9 17 4 2 16 93 25 203 10 110 19 204 20 210 2 9 85 -244 120
-367 9 -31 23 -64 32 -72 17 -18 54 -22 54 -6 0 6 -6 10 -13 10 -9 0 -19 32
-31 93 -44 224 -64 347 -70 417 -6 78 -23 203 -32 231 -2 9 -14 19 -26 22 -20
6 -21 16 -3 59 4 11 0 20 -16 28 -19 11 -21 10 -16 -4 4 -9 2 -16 -4 -16 -6 0
-8 -11 -4 -29 5 -25 3 -29 -19 -35 -14 -3 -30 -15 -36 -26 -20 -37 -35 -22
-51 47 -10 44 -20 68 -29 69 -8 1 -58 -4 -110 -12z"/>
<path d="M1425 906 l-30 -24 45 -7 c25 -3 56 -2 70 4 18 7 20 10 8 10 -10 1
-18 5 -18 11 0 5 8 14 18 19 14 8 9 10 -23 11 -27 0 -49 -8 -70 -24z"/>
<path d="M731 889 c-54 -11 -84 -49 -88 -111 -4 -47 -1 -57 24 -86 23 -27 38
-35 75 -39 65 -8 101 10 129 61 52 100 -27 199 -140 175z m99 -69 c0 -17 -5
-19 -25 -14 -25 6 -25 5 -25 -54 0 -43 -4 -61 -15 -65 -22 -9 -28 9 -20 70 l7
56 -26 -5 c-20 -4 -26 -1 -26 13 0 17 8 19 65 19 59 0 65 -2 65 -20z m-125
-47 c9 -22 16 -73 10 -73 -13 0 -45 47 -45 67 0 27 25 31 35 6z m150 6 c9 -14
-13 -66 -31 -73 -15 -6 -19 21 -8 62 7 23 28 30 39 11z"/>
<path d="M1558 883 c-17 -4 -18 -27 -18 -299 l0 -294 -370 0 -370 0 0 29 c0
25 -3 28 -30 27 l-30 -1 0 -111 c0 -77 4 -115 12 -121 16 -12 807 -12 826 0 9
6 12 96 12 393 0 211 -3 383 -7 383 -5 -1 -16 -3 -25 -6z m-8 -638 c3 -11 3
-38 0 -60 l-5 -40 -385 0 -385 0 -3 60 -3 60 388 0 c378 0 388 -1 393 -20z"/>
<path d="M1080 825 c-7 -9 -30 -29 -51 -46 -38 -30 -39 -30 -65 -12 -26 17
-27 17 -16 -2 37 -64 38 -64 92 -10 54 54 76 85 62 85 -5 0 -15 -7 -22 -15z"/>
<path d="M1290 780 l-165 -6 168 -2 c106 -1 167 2 167 8 0 6 -1 9 -2 8 -2 -1
-77 -5 -168 -8z"/>
<path d="M1130 740 c0 -6 62 -10 165 -10 103 0 165 4 165 10 0 6 -62 10 -165
10 -103 0 -165 -4 -165 -10z"/>
<path d="M1133 708 c-2 -5 53 -8 123 -8 70 0 125 3 122 6 -9 8 -239 10 -245 2z"/>
<path d="M699 596 c-63 -36 -83 -125 -41 -183 30 -42 83 -59 138 -44 47 13 67
32 83 82 14 44 -4 105 -40 131 -34 25 -107 32 -140 14z m90 -32 c17 -4 31 -12
31 -20 0 -19 -17 -26 -38 -15 -21 11 -48 -1 -38 -18 4 -6 15 -11 25 -11 31 0
64 -33 57 -57 -14 -44 -116 -53 -124 -11 -2 13 5 15 42 11 59 -7 61 10 4 29
-35 10 -44 18 -46 40 -2 18 4 31 20 42 26 18 25 18 67 10z"/>
<path d="M1046 544 c-27 -25 -55 -43 -63 -39 -7 3 -20 8 -30 12 -12 5 -10 -1
7 -25 13 -18 27 -32 30 -32 8 0 120 116 120 124 0 14 -18 3 -64 -40z"/>
<path d="M1132 535 c8 -9 328 -11 328 -2 0 4 -75 7 -167 7 -91 0 -164 -2 -161
-5z"/>
<path d="M1130 500 c0 -6 62 -10 165 -10 103 0 165 4 165 10 0 6 -62 10 -165
10 -103 0 -165 -4 -165 -10z"/>
<path d="M1193 463 c37 -2 96 -2 130 0 34 2 4 3 -68 3 -71 0 -99 -1 -62 -3z"/>
</g>
</svg>
